#!OML:ASF H:\ManfredETheater\Project 1\Capture day 1\Session 1\subject.ASF
:FULLY-SPECIFIED
:DEGREES
48
root -6.07948 14.6804 28.8457 -141.145 39.4644 -180.004
lowerback 54.2688 -3.55896 -0.0762126
upperback 13.5447 -0.174702 -2.8551
thorax -5.91609 1.57687 -3.14681
lowerneck 1.41985 -5.10261 -2.15088
upperneck -20.2423 -6.84279 -1.24037
head -6.34629 -2.61583 0.309619
rclavicle -1.1281e-014 -2.01829e-014
rhumerus 42.767 8.94504 -50.8109
rradius 73.8808
rwrist 11.8416
rhand -41.1866 -2.19184
rfingers 7.12502
rthumb -14.1114 -31.6927
lclavicle -1.1281e-014 -2.01829e-014
lhumerus 15.2236 10.6291 59.4936
lradius 63.0714
lwrist 17.8122
lhand -35.3695 -3.97958
lfingers 7.12502
lthumb -8.50138 25.8293
rfemur -46.6184 -9.71518 14.093
rtibia 66.2038
rfoot -34.7177 -16.6323
rtoes -49.3755
lfemur -99.2636 16.168 -21.2172
ltibia 68.4761
lfoot -16.1223 4.94561
ltoes -15.3147
49
root -5.99683 14.5947 28.3977 -140.014 38.986 -180.219
lowerback 53.5761 -3.89496 0.555374
upperback 13.8023 -0.244554 -2.89487
thorax -5.57959 1.55417 -3.432
lowerneck 1.63859 -5.37677 -2.23057
upperneck -19.9898 -7.19733 -0.822841
head -6.28249 -2.83706 0.478666
rclavicle -4.08502e-014 6.6245e-014
rhumerus 45.3389 7.63895 -49.9077
rradius 72.6649
rwrist 11.8917
rhand -41.57 -2.31939
rfingers 7.12502
rthumb -14.4809 -31.7941
lclavicle -4.08502e-014 6.6245e-014
lhumerus 17.6371 9.6298 57.2352
lradius 62.4866
lwrist 17.1749
lhand -35.5916 -4.12641
lfingers 7.12502
lthumb -8.71568 25.6737
rfemur -45.5667 -10.6573 13.2052
rtibia 65.0172
rfoot -34.8809 -15.5914
rtoes -49.694
lfemur -101.38 15.658 -21.4831
ltibia 64.0542
lfoot -14.4862 3.98149
ltoes -16.9793
50
root -5.9097 14.5086 27.9374 -138.879 38.4858 -180.362
lowerback 52.9317 -4.16643 1.18887
upperback 14.0318 -0.247345 -2.88317
thorax -5.26854 1.55998 -3.69354
lowerneck 1.84557 -5.66077 -2.29823
upperneck -19.7004 -7.56553 -0.408678
head -6.20359 -3.06718 0.643689
rclavicle -1.09332e-014 2.75317e-014
rhumerus 47.7852 6.23322 -49.1427
rradius 71.2195
rwrist 11.9913
rhand -41.9218 -2.3937
rfingers 7.12502
rthumb -14.8199 -31.8438
lclavicle -1.09332e-014 2.75317e-014
lhumerus 20.0685 8.64891 54.8524
lradius 61.9622
lwrist 16.4477
lhand -35.8561 -4.37989
lfingers 7.12502
lthumb -8.97093 25.4094
rfemur -44.3116 -11.5062 12.3625
rtibia 63.5918
rfoot -34.7368 -14.6396
rtoes -50.1898
lfemur -103.132 15.1196 -21.7198
ltibia 59.7951
lfoot -12.6732 2.89911
ltoes -18.488
51
root -5.81776 14.4231 27.4644 -137.724 37.9988 -180.403
lowerback 52.3197 -4.34868 1.79476
upperback 14.2389 -0.169679 -2.82392
thorax -4.97343 1.59933 -3.92635
lowerneck 2.03596 -5.94562 -2.38029
upperneck -19.3596 -7.93438 0.0161907
head -6.10266 -3.29979 0.811874
rclavicle -5.54609e-014 -1.1281e-014
rhumerus 50.1191 4.76151 -48.5692
rradius 69.5332
rwrist 12.1774
rhand -42.2442 -2.42681
rfingers 7.12502
rthumb -15.1304 -31.8537
lclavicle -5.54609e-014 -1.1281e-014
lhumerus 22.518 7.77087 52.4128
lradius 61.4842
lwrist 15.4859
lhand -36.1553 -4.69013
lfingers 7.12502
lthumb -9.2597 25.0865
rfemur -42.861 -12.2145 11.5776
rtibia 61.89
rfoot -34.2596 -13.8644
rtoes -50.8909
lfemur -104.606 14.599 -21.9869
ltibia 55.897
lfoot -10.7354 1.81008
ltoes -19.8445
52
root -5.72121 14.3397 26.9786 -136.533 37.5506 -180.326
lowerback 51.7175 -4.42312 2.36065
upperback 14.43 0.00345539 -2.72047
thorax -4.68363 1.67859 -4.13301
lowerneck 2.21642 -6.22849 -2.42953
upperneck -18.9776 -8.30466 0.401952
head -5.98841 -3.53369 0.960162
rclavicle 1.0297e-013 -1.23246e-014
rhumerus 52.3356 3.24106 -48.2197
rradius 67.6195
rwrist 12.4344
rhand -42.5098 -2.45575
rfingers 7.12502
rthumb -15.3862 -31.8632
lclavicle 1.0297e-013 -1.23246e-014
lhumerus 24.9949 7.03657 49.9974
lradius 61.0203
lwrist 14.2193
lhand -36.4978 -5.05911
lfingers 7.12502
lthumb -9.59014 24.7026
rfemur -41.2515 -12.7408 10.8545
rtibia 59.9624
rfoot -33.5121 -13.2436
rtoes -51.7342
lfemur -105.941 14.1198 -22.3687
ltibia 52.6804
lfoot -8.81232 0.802526
ltoes -21.28
53
root -5.62121 14.2586 26.4804 -135.278 37.1509 -180.132
lowerback 51.0792 -4.38301 2.87433
upperback 14.6039 0.268072 -2.57121
thorax -4.39519 1.79351 -4.30324
lowerneck 2.38197 -6.4919 -2.47419
upperneck -18.5638 -8.65059 0.765579
head -5.86185 -3.75513 1.09687
rclavicle 4.25399e-014 1.08934e-013
rhumerus 54.4316 1.73263 -48.1482
rradius 65.5082
rwrist 12.7549
rhand -42.6948 -2.51174
rfingers 7.12502
rthumb -15.5644 -31.9054
lclavicle 4.25399e-014 1.08934e-013
lhumerus 27.4827 6.49064 47.6954
lradius 60.5509
lwrist 12.6447
lhand -36.8608 -5.43864
lfingers 7.12502
lthumb -9.94033 24.3067
rfemur -39.508 -13.0512 10.1872
rtibia 57.7233
rfoot -32.4581 -12.699
rtoes -52.6229
lfemur -107.279 13.6799 -22.9329
ltibia 50.3188
lfoot -7.02387 -0.0932802
ltoes -26.0007
54
root -5.51836 14.1338 25.9711 -133.924 36.7872 -179.851
lowerback 50.4781 -4.33656 3.43393
upperback 14.6524 0.507527 -2.51737
thorax -4.24561 1.89328 -4.59242
lowerneck 2.53634 -6.70073 -2.45761
upperneck -18.0732 -8.91305 1.15711
head -5.71087 -3.94708 1.22481
rclavicle 3.49861e-014 -3.12092e-014
rhumerus 56.3828 0.364222 -48.5808
rradius 63.2086
rwrist 13.0957
rhand -42.789 -2.63856
rfingers 7.12502
rthumb -15.6552 -32.0252
lclavicle 3.49861e-014 -3.12092e-014
lhumerus 29.8582 6.10805 45.3637
lradius 60.0852
lwrist 10.8404
lhand -37.3488 -5.7602
lfingers 7.12502
lthumb -10.4111 23.962
rfemur -37.6986 -13.1944 9.52776
rtibia 55.2904
rfoot -31.1763 -12.1709
rtoes -53.4916
lfemur -109.078 13.2859 -23.9409
ltibia 49.1752
lfoot -5.4874 -1.0918
ltoes -30.9351
55
root -5.41258 14.0526 25.4527 -132.546 36.464 -179.476
lowerback 50.0481 -4.31518 4.04383
upperback 14.5499 0.697578 -2.60019
thorax -4.28107 1.96913 -5.03961
lowerneck 2.65301 -6.84516 -2.36285
upperneck -17.5087 -9.07628 1.57599
head -5.53386 -4.10131 1.33932
rclavicle -4.6118e-014 7.17613e-014
rhumerus 58.1966 -0.818907 -49.5948
rradius 60.7606
rwrist 13.4368
rhand -42.8 -2.84005
rfingers 7.12502
rthumb -15.6657 -32.2258
lclavicle -4.6118e-014 7.17613e-014
lhumerus 32.1068 5.87946 43.0043
lradius 59.6147
lwrist 8.98694
lhand -37.9502 -5.97174
lfingers 7.12502
lthumb -10.9912 23.7205
rfemur -35.6565 -13.0181 8.93522
rtibia 52.284
rfoot -29.4173 -11.4321
rtoes -54.1625
lfemur -110.896 12.8912 -25.4075
ltibia 49.084
lfoot -4.32278 -2.37166
ltoes -35.3924
